<?xml version="1.0" standalone="no"?>
<!DOCTYPE svg PUBLIC "-//W3C//DTD SVG 20010904//EN"
 "http://www.w3.org/TR/2001/REC-SVG-20010904/DTD/svg10.dtd">
<svg version="1.0" xmlns="http://www.w3.org/2000/svg"
 width="88.000000pt" height="80.000000pt" viewBox="0 0 88.000000 80.000000"
 preserveAspectRatio="xMidYMid meet">

<g transform="translate(0.000000,80.000000) scale(0.100000,-0.100000)"
fill="#000000" stroke="none">
<path d="M320 671 c0 -5 -7 -17 -16 -26 -15 -15 -15 -17 0 -34 9 -10 16 -23
16 -31 0 -7 12 0 28 16 26 28 27 30 10 47 -10 10 -18 22 -18 27 0 6 -4 10 -10
10 -5 0 -10 -4 -10 -9z m20 -39 c0 -13 -12 -22 -22 -16 -10 6 -1 24 13 24 5 0
9 -4 9 -8z"/>
<path d="M441 621 c-21 -13 5 -44 30 -36 47 15 144 -69 181 -156 18 -42 18
-42 13 -10 -12 78 -94 171 -166 186 -16 4 -29 11 -29 16 0 11 -11 11 -29 0z"/>
<path d="M226 529 c-56 -66 -80 -156 -58 -218 8 -23 8 -31 -1 -31 -7 0 -5 -7
5 -16 19 -19 38 -11 38 17 0 11 -4 18 -9 15 -10 -7 -21 27 -21 69 0 50 19 102
55 150 39 51 31 62 -9 14z"/>
<path d="M362 548 c-7 -7 -12 -20 -12 -29 0 -10 -9 -20 -20 -24 -26 -8 -61
-58 -70 -101 -14 -59 18 -137 34 -86 9 27 45 58 98 85 l46 23 31 -25 c16 -14
39 -46 49 -71 19 -45 19 -47 1 -83 -12 -22 -37 -47 -64 -63 l-45 -26 -45 26
c-26 16 -54 43 -65 64 -19 34 -20 27 -4 -28 3 -10 29 -33 59 -50 53 -30 55
-31 87 -14 61 31 86 54 93 85 4 17 13 42 21 57 31 60 8 154 -48 195 -15 11
-28 28 -28 37 0 27 -22 40 -65 40 -23 0 -46 -5 -53 -12z m82 -4 c30 -12 16
-22 -34 -26 -54 -3 -64 13 -14 23 16 4 30 7 31 8 1 0 8 -2 17 -5z m6 -58 c0
-23 -33 -56 -84 -84 -31 -17 -55 -39 -65 -59 -22 -44 -31 -41 -31 10 0 51 28
100 72 127 39 23 108 27 108 6z m57 -18 c33 -37 43 -64 43 -115 l-1 -48 -21
43 c-11 24 -33 49 -49 58 -32 16 -34 22 -17 59 14 31 19 31 45 3z"/>
<path d="M637 326 c-15 -22 -15 -27 -1 -55 9 -17 17 -31 18 -31 1 0 12 13 24
30 l22 29 -24 26 -24 25 -15 -24z m28 -25 c7 -12 -12 -24 -25 -16 -11 7 -4 25
10 25 5 0 11 -4 15 -9z"/>
<path d="M365 310 c-4 -6 -16 -8 -28 -4 -20 6 -21 5 -6 -10 17 -19 49 -12 49
10 0 17 -6 18 -15 4z"/>
<path d="M430 312 c0 -17 27 -33 44 -26 9 3 16 13 16 21 0 13 -3 13 -15 3 -12
-10 -18 -10 -30 0 -8 7 -15 8 -15 2z"/>
<path d="M593 224 c-7 -3 -10 -11 -7 -18 6 -15 -66 -83 -104 -97 -65 -25 -138
-9 -222 48 l-25 17 24 -27 c82 -92 236 -87 321 9 17 19 35 32 40 29 6 -3 10 5
10 19 0 25 -11 30 -37 20z"/>
<path d="M405 210 c-24 -5 -27 -8 -13 -14 22 -10 50 -4 56 12 4 13 2 13 -43 2z"/>
</g>
</svg>
