<?xml version="1.0" standalone="no"?>
<!DOCTYPE svg PUBLIC "-//W3C//DTD SVG 20010904//EN"
 "http://www.w3.org/TR/2001/REC-SVG-20010904/DTD/svg10.dtd">
<svg version="1.0" xmlns="http://www.w3.org/2000/svg"
 width="2048.000000pt" height="2048.000000pt" viewBox="0 0 2048.000000 2048.000000"
 preserveAspectRatio="xMidYMid meet">

<g transform="translate(0.000000,2048.000000) scale(0.100000,-0.100000)"
fill="#000000" stroke="none">
<path d="M9925 20474 c-496 -21 -815 -50 -1220 -110 -1944 -289 -3746 -1133
-5255 -2463 -212 -186 -598 -567 -803 -791 -448 -491 -838 -1014 -1199 -1610
-335 -552 -668 -1268 -879 -1890 -359 -1056 -535 -2054 -565 -3206 -13 -475
29 -1115 107 -1654 88 -612 277 -1371 488 -1963 596 -1671 1617 -3157 2968
-4319 487 -420 1105 -851 1673 -1167 1752 -975 3734 -1414 5740 -1270 883 63
1710 228 2525 503 2270 766 4174 2276 5452 4326 849 1362 1372 2982 1493 4625
30 415 36 772 20 1142 -27 584 -86 1082 -196 1633 -67 338 -113 528 -198 820
-261 904 -584 1652 -1044 2420 -335 560 -734 1099 -1172 1585 -900 998 -2033
1844 -3222 2406 -1201 567 -2426 883 -3763 969 -164 11 -807 20 -950 14z
m1125 -3371 c28 -17 132 -147 243 -305 290 -415 551 -989 675 -1485 107 -424
120 -759 46 -1161 -58 -318 -51 -469 31 -688 92 -245 384 -649 766 -1062 175
-188 215 -239 258 -322 52 -100 71 -174 71 -280 0 -156 -52 -281 -160 -384
-77 -73 -153 -115 -356 -195 -97 -39 -192 -82 -211 -97 -19 -15 -44 -47 -55
-72 -39 -88 -9 -191 106 -355 100 -143 128 -237 107 -353 -24 -127 -103 -243
-217 -319 -30 -20 -54 -38 -54 -40 0 -3 20 -35 45 -72 64 -95 89 -181 83 -291
-7 -144 -72 -249 -212 -345 -188 -127 -213 -201 -161 -477 25 -132 27 -160 22
-320 -3 -138 -9 -191 -26 -254 -91 -327 -337 -572 -671 -669 -193 -56 -432
-64 -706 -23 -269 40 -467 51 -652 37 -329 -25 -574 -97 -766 -225 -244 -164
-427 -395 -561 -710 -96 -227 -161 -497 -205 -856 -14 -114 -31 -153 -77 -181
-27 -17 -45 -20 -86 -16 -42 4 -56 10 -84 40 -18 20 -35 47 -39 61 -8 32 29
312 62 476 14 69 46 193 70 277 199 688 570 1118 1132 1314 l94 32 -179 54
c-240 73 -323 101 -509 173 -642 247 -1093 491 -1474 797 -446 358 -751 786
-859 1205 -42 163 -55 260 -41 303 21 64 100 107 165 91 14 -4 42 -21 61 -39
33 -30 37 -40 58 -157 50 -267 150 -484 339 -735 82 -108 347 -373 477 -475
112 -89 361 -256 497 -333 680 -388 1701 -722 2618 -858 359 -54 626 -13 817
124 127 92 222 235 254 387 25 117 21 306 -10 469 -14 73 -26 166 -26 205 1
202 90 357 283 492 43 30 87 70 97 87 64 105 -32 279 -169 308 -107 23 -159
79 -148 161 11 82 46 107 188 136 153 31 252 93 288 180 20 47 7 89 -54 188
-142 228 -188 366 -167 501 32 201 147 312 444 429 94 37 196 84 228 106 98
65 141 155 127 263 -13 92 -41 132 -266 376 -235 256 -512 602 -626 784 -76
121 -178 330 -214 440 -70 210 -79 444 -28 715 41 219 50 326 44 540 -7 254
-27 378 -108 660 -153 538 -401 1035 -722 1448 -53 68 -99 136 -102 152 -10
45 3 86 36 120 49 49 110 57 169 23z m2336 -7778 c13 -8 32 -30 41 -48 17 -30
18 -95 23 -920 l5 -888 154 175 c126 144 162 179 198 192 40 16 46 16 88 0 59
-23 89 -65 89 -126 0 -25 -7 -55 -15 -67 -20 -29 -531 -603 -563 -632 -36 -34
-123 -41 -164 -15 -23 15 -404 433 -561 616 -65 76 -49 183 33 222 83 39 112
21 285 -173 82 -91 156 -173 165 -180 15 -12 16 57 16 876 l0 890 23 34 c43
65 122 84 183 44z m-3280 -4921 c32 -8 82 -25 109 -38 63 -29 175 -112 175
-129 0 -7 -26 -39 -59 -71 l-58 -58 -39 36 c-139 127 -374 152 -546 59 -58
-31 -147 -123 -177 -181 -68 -133 -68 -331 0 -464 28 -55 113 -143 168 -176
62 -36 164 -62 246 -62 118 0 217 36 308 112 27 22 52 37 56 32 4 -5 30 -33
57 -63 l49 -53 -53 -48 c-111 -100 -253 -150 -422 -150 -435 0 -731 376 -630
799 61 252 255 430 515 471 77 12 225 4 301 -16z m-3286 -74 l0 -80 -350 0
-350 0 0 -210 0 -210 310 0 310 0 0 -85 0 -85 -311 0 -311 0 3 -247 3 -248
-94 0 -95 0 -3 623 -2 622 445 0 445 0 0 -80z m410 -460 l0 -540 325 0 325 0
0 -85 0 -85 -417 3 -418 2 -3 623 -2 622 95 0 95 0 0 -540z m1535 278 c66
-145 190 -418 277 -607 87 -190 160 -353 164 -363 5 -17 -2 -18 -90 -18 -84 0
-97 2 -109 20 -8 11 -40 81 -72 155 l-59 135 -325 -2 -325 -3 -66 -150 -66
-150 -97 -3 c-53 -1 -97 1 -97 6 0 5 35 87 79 183 43 96 167 373 276 617 l198
442 97 0 96 0 119 -262z m2045 -363 l0 -626 -92 3 -93 3 -3 623 -2 622 95 0
95 0 0 -625z m1105 592 c108 -38 179 -83 253 -161 107 -111 162 -256 162 -427
0 -279 -147 -491 -406 -585 -91 -34 -207 -42 -509 -40 l-260 3 -3 622 -2 622
342 -3 343 -3 80 -28z m1545 -47 l0 -80 -350 0 -350 0 0 -180 0 -180 308 -2
307 -3 3 -82 3 -83 -311 0 -310 0 0 -195 0 -195 365 0 365 0 0 -85 0 -85 -457
2 -458 3 -3 623 -2 622 445 0 445 0 0 -80z m1180 10 l0 -70 -158 -197 c-87
-109 -256 -321 -375 -470 l-217 -273 391 0 390 0 -3 -82 -3 -83 -512 0 -513 0
0 70 0 70 182 225 c101 124 271 335 379 470 l197 245 -369 3 -369 2 0 80 0 80
490 0 490 0 0 -70z"/>
<path d="M8525 4155 c-14 -33 -72 -166 -128 -295 l-103 -235 128 -3 c70 -1
186 -1 257 0 l129 3 -128 295 -129 294 -26 -59z"/>
<path d="M11340 3790 l0 -460 208 0 c154 0 223 4 267 15 130 34 226 113 284
235 36 75 36 76 36 210 0 131 -1 137 -32 203 -60 127 -175 218 -311 246 -29 6
-143 11 -252 11 l-200 0 0 -460z"/>
</g>
</svg>
