<?xml version="1.0" standalone="no"?>
<!DOCTYPE svg PUBLIC "-//W3C//DTD SVG 20010904//EN"
 "http://www.w3.org/TR/2001/REC-SVG-20010904/DTD/svg10.dtd">
<svg version="1.0" xmlns="http://www.w3.org/2000/svg"
 width="96.000000pt" height="95.000000pt" viewBox="0 0 96.000000 95.000000"
 preserveAspectRatio="xMidYMid meet">

<g transform="translate(0.000000,95.000000) scale(0.100000,-0.100000)"
fill="#000000" stroke="none">
<path d="M256 737 c-5 -9 -5 -32 -1 -50 3 -17 6 -43 6 -57 -4 -89 -10 -129
-26 -160 -10 -19 -19 -57 -21 -85 -2 -27 -7 -80 -10 -116 -4 -45 -3 -69 5 -73
7 -5 11 7 11 37 0 25 3 59 6 76 6 30 9 32 38 26 17 -4 63 -24 101 -44 57 -30
72 -43 80 -69 10 -36 25 -43 25 -12 0 12 12 32 26 45 29 27 115 69 162 79 27
6 30 4 36 -25 3 -17 6 -51 6 -76 0 -30 4 -42 11 -37 8 4 9 28 5 73 -3 36 -8
89 -10 116 -2 28 -11 66 -21 85 -23 44 -32 147 -19 226 3 26 2 44 -5 48 -7 5
-11 -5 -11 -27 0 -44 -33 -87 -66 -87 -14 0 -46 5 -71 12 -35 8 -60 8 -109 -2
-35 -6 -75 -9 -88 -6 -25 6 -43 40 -49 91 -3 24 -5 27 -11 12z m328 -122 c28
-2 52 -8 57 -16 23 -37 -3 -99 -43 -99 -10 0 -18 -4 -18 -10 0 -13 26 -13 49
0 15 8 22 3 37 -25 25 -46 10 -75 -63 -122 -55 -36 -62 -38 -143 -38 -81 0
-88 2 -143 38 -73 47 -88 76 -63 122 15 28 22 32 36 25 28 -15 31 1 5 22 -16
12 -25 30 -25 46 0 43 15 57 57 54 21 -1 52 2 68 8 17 5 55 7 85 3 30 -3 77
-7 104 -8z m-339 -245 c3 -5 1 -10 -4 -10 -6 0 -11 5 -11 10 0 6 2 10 4 10 3
0 8 -4 11 -10z m445 0 c0 -5 -5 -10 -11 -10 -5 0 -7 5 -4 10 3 6 8 10 11 10 2
0 4 -4 4 -10z m-213 -107 c-16 -16 -18 -16 -34 0 -16 16 -15 17 17 17 32 0 33
-1 17 -17z"/>
<path d="M450 420 c0 -5 5 -10 10 -10 6 0 10 5 10 10 0 6 -4 10 -10 10 -5 0
-10 -4 -10 -10z"/>
</g>
</svg>
