<?xml version="1.0" standalone="no"?>
<!DOCTYPE svg PUBLIC "-//W3C//DTD SVG 20010904//EN"
 "http://www.w3.org/TR/2001/REC-SVG-20010904/DTD/svg10.dtd">
<svg version="1.0" xmlns="http://www.w3.org/2000/svg"
 width="2048.000000pt" height="2048.000000pt" viewBox="0 0 2048.000000 2048.000000"
 preserveAspectRatio="xMidYMid meet">

<g transform="translate(0.000000,2048.000000) scale(0.100000,-0.100000)"
fill="#000000" stroke="none">
<path d="M9505 15789 c-442 -53 -828 -231 -1105 -509 -355 -355 -539 -829
-540 -1387 0 -347 54 -613 201 -980 55 -139 62 -154 209 -433 122 -231 207
-422 245 -554 42 -146 50 -250 37 -459 -14 -206 -31 -301 -73 -402 -78 -188
-200 -274 -815 -579 -570 -283 -773 -408 -948 -581 -209 -207 -318 -438 -360
-763 -9 -68 -16 -139 -16 -156 0 -50 228 -541 237 -510 1 5 23 169 48 364 25
195 54 391 65 435 48 192 162 357 345 500 154 120 274 189 735 420 611 307
701 362 830 502 124 135 198 292 237 504 14 75 17 150 18 374 0 272 -1 283
-27 377 -60 220 -130 381 -318 733 -130 245 -233 498 -285 705 -202 804 91
1589 711 1908 266 136 504 191 824 192 243 0 398 -22 589 -86 126 -42 290
-125 386 -196 269 -200 473 -530 569 -919 35 -146 46 -221 56 -399 5 -85 16
-177 24 -205 8 -27 45 -102 82 -165 36 -63 95 -169 132 -235 36 -66 90 -159
119 -207 30 -48 60 -103 68 -122 14 -34 14 -36 -7 -50 -13 -8 -61 -24 -108
-36 -193 -48 -243 -75 -269 -143 -11 -29 -45 -397 -56 -612 -12 -228 -37 -312
-110 -372 -56 -46 -95 -54 -315 -63 -118 -5 -226 -15 -255 -23 -117 -33 -201
-100 -251 -203 l-29 -59 0 -240 c0 -237 1 -241 27 -308 66 -166 166 -261 396
-376 85 -43 544 -247 862 -384 544 -234 842 -392 992 -526 103 -93 179 -234
212 -390 8 -41 39 -245 68 -453 29 -208 55 -378 58 -378 9 1 107 181 173 320
l65 135 -29 195 c-16 107 -36 231 -44 275 -50 251 -225 496 -470 659 -155 103
-474 261 -915 451 -374 161 -650 285 -807 361 -166 81 -222 125 -264 211 -23
45 -24 57 -21 208 1 88 5 168 8 177 8 27 58 36 244 42 96 4 207 13 245 21 238
50 405 236 444 495 10 61 35 392 45 575 3 53 8 82 18 87 7 3 54 19 103 33 116
35 177 66 229 119 53 53 76 116 76 210 -1 105 -34 175 -292 618 -60 103 -116
204 -124 224 -10 24 -19 94 -25 197 -31 557 -278 1108 -636 1420 -142 123
-331 234 -533 310 -220 83 -370 108 -675 112 -126 2 -266 -1 -310 -6z"/>
<path d="M11719 15317 c-94 -63 -106 -181 -24 -245 14 -11 83 -43 155 -72 467
-187 996 -515 1410 -874 208 -180 487 -473 652 -686 87 -112 124 -140 185
-140 114 0 187 93 153 195 -23 69 -288 383 -520 615 -478 477 -1051 867 -1675
1140 -225 98 -275 108 -336 67z"/>
<path d="M7600 15256 c-66 -25 -417 -204 -551 -281 -1074 -617 -1914 -1591
-2377 -2755 -349 -879 -463 -1915 -312 -2846 119 -736 381 -1432 775 -2060
761 -1212 1975 -2109 3330 -2459 483 -125 884 -177 1365 -178 475 0 821 43
1305 164 1554 389 2913 1487 3640 2939 359 718 532 1409 571 2280 8 178 -1
219 -59 274 -38 36 -43 38 -94 34 -57 -5 -92 -25 -127 -72 -18 -24 -22 -52
-32 -277 -7 -137 -17 -298 -24 -357 -59 -571 -236 -1181 -490 -1697 -269 -545
-607 -1015 -1035 -1440 -520 -518 -1116 -910 -1782 -1174 -621 -246 -1224
-363 -1868 -364 -565 -1 -1080 84 -1630 268 -669 223 -1302 592 -1833 1069
-581 522 -1022 1129 -1335 1837 -314 708 -474 1572 -428 2309 48 776 216 1417
541 2060 388 768 924 1395 1630 1907 230 166 486 318 785 465 224 109 237 121
237 209 0 113 -100 185 -202 145z"/>
<path d="M9518 9363 c12 -2 32 -2 45 0 12 2 2 4 -23 4 -25 0 -35 -2 -22 -4z"/>
<path d="M10088 9363 c12 -2 32 -2 45 0 12 2 2 4 -23 4 -25 0 -35 -2 -22 -4z"/>
<path d="M9395 9350 c-13 -6 -2 -7 30 -3 28 3 52 7 54 9 9 8 -65 2 -84 -6z"/>
<path d="M10170 9351 c0 -5 -8 -12 -17 -14 -14 -4 -12 -5 5 -6 12 0 22 -7 22
-13 0 -9 3 -10 8 -2 8 12 40 13 59 1 8 -5 8 -1 0 18 -9 19 -20 25 -44 25 -18
0 -33 -4 -33 -9z m57 -7 c-3 -3 -12 -4 -19 -1 -8 3 -5 6 6 6 11 1 17 -2 13 -5z"/>
<path d="M10265 9338 c11 -6 31 -23 44 -37 13 -14 20 -19 16 -11 -15 29 -49
60 -64 60 -12 -1 -11 -3 4 -12z"/>
<path d="M10100 9330 c0 -5 7 -7 15 -4 8 4 15 8 15 10 0 2 -7 4 -15 4 -8 0
-15 -4 -15 -10z"/>
<path d="M10361 9134 c0 -11 3 -14 6 -6 3 7 2 16 -1 19 -3 4 -6 -2 -5 -13z"/>
<path d="M10375 9056 c2 -32 8 -62 15 -66 8 -5 9 -10 2 -14 -6 -3 -12 0 -15 6
-2 7 -8 9 -13 5 -10 -10 16 -28 30 -20 6 4 6 -1 2 -13 -6 -15 -4 -16 5 -7 9 9
7 29 -9 90 l-20 78 3 -59z"/>
<path d="M9878 9083 c12 -2 30 -2 40 0 9 3 -1 5 -23 4 -22 0 -30 -2 -17 -4z"/>
<path d="M9261 9064 c0 -11 3 -14 6 -6 3 7 2 16 -1 19 -3 4 -6 -2 -5 -13z"/>
<path d="M9623 9073 c15 -2 37 -2 50 0 12 2 0 4 -28 4 -27 0 -38 -2 -22 -4z"/>
<path d="M9983 9073 c9 -2 25 -2 35 0 9 3 1 5 -18 5 -19 0 -27 -2 -17 -5z"/>
<path d="M9241 8984 c-7 -30 -10 -58 -7 -61 3 -4 6 1 6 10 0 8 8 23 17 33 13
13 14 19 5 22 -7 2 -9 9 -5 15 11 17 13 37 4 37 -4 0 -13 -25 -20 -56z"/>
<path d="M10411 8924 c0 -11 3 -14 6 -6 3 7 2 16 -1 19 -3 4 -6 -2 -5 -13z"/>
<path d="M11370 8873 c13 -10 45 -33 70 -51 l45 -33 -40 36 c-22 20 -53 43
-70 51 l-30 14 25 -17z"/>
<path d="M8175 8808 c-39 -33 -72 -65 -74 -70 -4 -11 15 5 99 82 78 71 58 62
-25 -12z"/>
<path d="M11355 8850 c11 -5 16 -9 11 -9 -11 -1 13 -31 25 -31 13 0 6 23 -11
37 -8 7 -22 12 -30 12 -10 0 -8 -3 5 -9z"/>
<path d="M10130 8835 c0 -8 4 -15 10 -15 5 0 7 7 4 15 -4 8 -8 15 -10 15 -2 0
-4 -7 -4 -15z"/>
<path d="M10161 8828 c-1 -9 -6 -18 -11 -20 -13 -4 -2 -88 11 -88 11 0 11 7 0
48 -6 20 -6 32 0 32 5 0 9 -5 9 -12 0 -6 2 -9 5 -7 2 3 0 18 -4 35 -5 16 -10
22 -10 12z"/>
<path d="M9496 8795 c-3 -9 -6 -26 -5 -38 1 -14 4 -9 9 13 9 37 7 52 -4 25z"/>
<path d="M11510 8765 c13 -14 26 -25 28 -25 3 0 -5 11 -18 25 -13 14 -26 25
-28 25 -3 0 5 -11 18 -25z"/>
<path d="M10610 8750 c8 -5 20 -10 25 -10 6 0 3 5 -5 10 -8 5 -19 10 -25 10
-5 0 -3 -5 5 -10z"/>
<path d="M11000 8719 c-22 -18 -22 -19 -3 -10 12 6 25 16 28 21 9 15 3 12 -25
-11z"/>
<path d="M9481 8714 c0 -11 3 -14 6 -6 3 7 2 16 -1 19 -3 4 -6 -2 -5 -13z"/>
<path d="M11590 8690 c78 -75 107 -97 60 -47 -25 27 -58 58 -75 69 -19 13 -14
5 15 -22z"/>
<path d="M10161 8694 c0 -11 3 -14 6 -6 3 7 2 16 -1 19 -3 4 -6 -2 -5 -13z"/>
<path d="M7994 8638 l-19 -23 23 19 c21 18 27 26 19 26 -2 0 -12 -10 -23 -22z"/>
<path d="M10171 8644 c0 -11 3 -14 6 -6 3 7 2 16 -1 19 -3 4 -6 -2 -5 -13z"/>
<path d="M7944 8588 l-19 -23 23 19 c21 18 27 26 19 26 -2 0 -12 -10 -23 -22z"/>
<path d="M10180 8606 c0 -2 8 -10 18 -17 15 -13 16 -12 3 4 -13 16 -21 21 -21
13z"/>
<path d="M8323 8570 c2 -8 -3 -24 -12 -35 -16 -20 -16 -20 5 -2 28 23 33 22
95 -21 107 -75 206 -135 172 -104 -18 16 -29 33 -25 37 4 5 -1 5 -10 2 -10 -3
-24 1 -32 9 -9 8 -18 15 -21 14 -17 -1 -17 1 1 15 12 9 14 14 6 15 -7 0 -11 4
-8 9 7 11 -20 8 -31 -3 -4 -4 -3 -6 2 -4 6 2 11 -1 13 -7 4 -17 -15 -11 -45
15 -36 32 -93 64 -93 53 0 -4 -5 -1 -11 7 -9 13 -10 13 -6 0z"/>
<path d="M7894 8538 l-19 -23 23 19 c21 18 27 26 19 26 -2 0 -12 -10 -23 -22z"/>
<path d="M8420 8554 c0 -12 28 -39 34 -33 2 2 0 13 -5 24 -5 13 -8 15 -8 5 -1
-13 -2 -13 -11 0 -5 8 -10 10 -10 4z"/>
<path d="M9342 8550 c-18 -4 -36 -11 -40 -15 -9 -9 58 4 78 16 18 10 7 10 -38
-1z"/>
<path d="M10324 8543 c9 -9 117 -43 136 -42 8 0 -12 9 -45 20 -71 24 -100 31
-91 22z"/>
<path d="M9236 8526 c7 -18 11 -18 39 -5 l20 9 -20 -2 c-11 -2 -26 1 -32 5 -9
6 -11 3 -7 -7z"/>
<path d="M11325 8534 c6 -5 28 -25 50 -44 l40 -35 -30 33 c-17 19 -39 38 -50
44 -11 6 -15 7 -10 2z"/>
<path d="M11225 8520 c6 -9 -71 -51 -79 -43 -3 3 -6 0 -6 -8 0 -16 -79 -64
-89 -54 -3 3 1 10 9 15 8 6 10 10 4 10 -6 0 -19 -9 -29 -20 -17 -18 -17 -20
-2 -14 10 3 17 1 17 -5 0 -6 -5 -11 -11 -11 -6 0 -24 -9 -40 -21 -26 -18 -33
-18 -31 2 1 3 -5 6 -13 6 -8 0 -11 -5 -8 -10 4 -6 -1 -8 -11 -4 -10 4 -15 3
-11 -3 3 -6 2 -10 -4 -10 -5 0 -11 4 -13 10 -2 6 -8 6 -18 0 -13 -8 -13 -10 2
-10 9 0 19 -4 23 -9 3 -6 -4 -8 -16 -6 -13 3 -26 10 -31 17 -5 9 -8 7 -9 -7
-1 -11 -1 -23 0 -28 1 -7 -53 17 -102 44 -11 6 -21 9 -23 7 -2 -3 24 -19 58
-37 87 -47 107 -42 297 81 181 118 181 117 153 115 -11 0 -19 -4 -17 -7z
m-270 -179 c-8 -14 -25 -14 -25 0 0 5 5 7 10 4 6 -3 10 -1 10 6 0 7 3 10 6 6
3 -3 3 -10 -1 -16z"/>
<path d="M11175 8510 c-3 -5 -1 -10 4 -10 6 0 11 5 11 10 0 6 -2 10 -4 10 -3
0 -8 -4 -11 -10z"/>
<path d="M8520 8470 c0 -5 4 -10 9 -10 6 0 13 5 16 10 3 6 -1 10 -9 10 -9 0
-16 -4 -16 -10z"/>
<path d="M11093 8463 c-15 -5 -17 -23 -4 -23 5 0 11 7 15 15 3 8 4 15 3 14 -1
0 -8 -3 -14 -6z"/>
<path d="M11830 8446 c0 -2 8 -10 18 -17 15 -13 16 -12 3 4 -13 16 -21 21 -21
13z"/>
<path d="M8601 8424 c0 -11 3 -14 6 -6 3 7 2 16 -1 19 -3 4 -6 -2 -5 -13z"/>
<path d="M8640 8390 c0 -20 -2 -22 -11 -10 -8 12 -10 12 -7 1 5 -19 116 -81
143 -80 11 0 34 6 50 13 l30 13 -32 -1 c-17 -1 -29 -5 -26 -9 2 -4 -7 -6 -21
-3 -35 6 -96 37 -96 48 0 5 5 6 10 3 15 -9 12 4 -5 21 -8 9 -15 12 -15 7 0 -4
-5 -1 -10 7 -8 12 -10 10 -10 -10z m30 -14 c0 -3 -4 -8 -10 -11 -5 -3 -10 -1
-10 4 0 6 5 11 10 11 6 0 10 -2 10 -4z"/>
<path d="M10990 8395 c-11 -13 -10 -14 4 -9 9 3 16 10 16 15 0 13 -6 11 -20
-6z"/>
<path d="M11880 8381 c5 -11 15 -23 20 -26 6 -3 10 -11 10 -16 0 -6 -5 -7 -12
-3 -7 4 -8 3 -4 -4 4 -6 12 -9 19 -6 7 2 19 -7 27 -21 7 -14 15 -23 18 -20 3
2 -14 29 -37 60 -42 55 -61 71 -41 36z"/>
<path d="M10837 8360 c-3 -11 -1 -20 4 -20 5 0 9 9 9 20 0 11 -2 20 -4 20 -2
0 -6 -9 -9 -20z"/>
<path d="M8873 8356 c-13 -6 -23 -14 -23 -19 0 -7 17 0 50 23 20 13 1 11 -27
-4z"/>
<path d="M8765 8351 c-11 -5 -27 -6 -35 -3 -9 3 -7 -2 5 -10 15 -12 23 -13 37
-4 14 9 26 28 16 25 -2 0 -12 -4 -23 -8z"/>
<path d="M7709 8323 c-13 -16 -12 -17 4 -4 9 7 17 15 17 17 0 8 -8 3 -21 -13z"/>
<path d="M11624 8227 l38 -48 -25 -37 c-20 -31 -22 -40 -11 -50 18 -16 21 -15
27 9 4 16 3 18 -9 8 -21 -17 -17 4 6 29 28 30 25 44 -22 93 l-41 44 37 -48z"/>
<path d="M7985 8193 c-12 -28 -14 -44 -4 -37 5 3 9 -2 9 -10 0 -9 3 -16 8 -16
4 0 20 -20 35 -45 16 -25 31 -45 34 -45 5 0 0 9 -48 81 -34 52 -35 58 -21 73
9 9 11 16 5 16 -6 0 -14 -8 -18 -17z"/>
<path d="M9716 8091 c-4 -5 4 -7 16 -3 12 3 19 1 15 -4 -3 -6 -2 -16 2 -22 10
-17 44 -4 37 14 -4 11 11 13 72 11 59 -2 76 -6 74 -17 -2 -10 0 -11 10 -3 7 6
27 13 43 16 23 3 21 4 -7 3 -21 -1 -38 2 -38 6 0 11 -218 10 -224 -1z"/>
<path d="M9653 8083 c9 -2 25 -2 35 0 9 3 1 5 -18 5 -19 0 -27 -2 -17 -5z"/>
<path d="M11548 8003 c-30 -48 -53 -90 -50 -93 2 -3 7 1 9 8 7 18 31 15 35 -5
3 -11 6 -5 9 15 4 24 2 32 -9 32 -12 0 -11 4 4 18 10 9 20 24 22 32 2 8 8 17
13 18 5 2 9 10 9 17 0 7 5 15 12 17 6 2 9 10 7 17 -3 7 -30 -27 -61 -76z"/>
<path d="M7720 8035 c0 -5 10 -21 21 -35 13 -17 17 -18 10 -5 -17 33 -31 51
-31 40z"/>
<path d="M8110 7967 c0 -5 9 -22 20 -38 17 -23 19 -33 10 -49 -7 -12 -7 -20
-1 -20 5 0 8 -8 6 -18 -2 -11 3 -19 11 -19 8 0 14 4 14 9 0 4 -4 8 -8 8 -5 0
-9 7 -9 15 0 19 5 19 22 1 8 -7 11 -16 8 -20 -4 -3 -1 -6 7 -6 10 0 10 -4 -1
-17 -12 -14 -12 -15 0 -9 16 10 31 -9 31 -39 0 -35 -21 -96 -31 -90 -5 4 -5
14 2 26 14 26 8 32 -22 20 -17 -7 -19 -10 -6 -10 9 -1 17 -6 17 -12 0 -5 -6
-7 -12 -3 -7 4 -4 -3 7 -16 14 -16 16 -24 7 -27 -6 -3 -10 -8 -8 -12 3 -4 0
-13 -5 -21 -8 -13 -10 -13 -19 0 -11 17 -12 4 -2 -23 6 -13 14 -5 41 39 43 73
50 127 23 180 -27 50 -102 162 -102 151z"/>
<path d="M9124 7905 c-60 -36 -118 -75 -129 -85 -28 -28 -14 -25 21 5 16 14
34 25 41 25 6 0 13 4 15 9 2 5 10 11 18 13 8 2 19 8 25 15 5 6 34 23 63 38 45
23 73 45 59 45 -2 0 -53 -29 -113 -65z"/>
<path d="M10433 7945 c0 -7 6 -11 13 -8 6 2 15 0 19 -6 3 -6 -1 -11 -10 -11
-15 0 -15 -2 -1 -15 8 -8 21 -15 28 -15 10 0 9 3 -2 10 -12 8 -11 10 6 10 12
0 33 -9 47 -20 14 -11 31 -20 39 -20 19 1 -16 26 -83 60 -39 20 -56 25 -56 15z"/>
<path d="M9185 7910 c-3 -5 1 -10 9 -10 9 0 16 5 16 10 0 6 -4 10 -9 10 -6 0
-13 -4 -16 -10z"/>
<path d="M11456 7851 c-14 -28 -26 -56 -25 -63 0 -7 5 -1 11 15 5 15 14 27 19
27 5 0 9 8 9 18 0 10 5 23 12 30 6 6 9 14 6 18 -4 3 -18 -17 -32 -45z"/>
<path d="M9132 7881 c-11 -6 -10 -10 0 -19 11 -8 14 -7 15 9 2 22 2 21 -15 10z"/>
<path d="M10500 7882 c0 -6 9 -14 20 -17 11 -3 20 -13 20 -21 0 -8 5 -14 11
-14 5 0 7 -4 4 -10 -3 -5 -1 -10 4 -10 6 0 11 5 11 11 0 6 7 8 16 5 14 -6 15
-4 4 9 -11 13 -11 16 1 13 21 -5 41 -27 34 -38 -3 -5 -1 -10 4 -10 6 0 11 5
11 12 0 6 9 3 20 -7 11 -10 23 -16 26 -13 10 11 -93 78 -110 72 -9 -3 -23 -1
-31 6 -8 7 -15 9 -15 5 0 -4 -7 -2 -15 5 -9 8 -15 8 -15 2z"/>
<path d="M11507 7883 c-4 -3 -7 -16 -6 -27 0 -19 1 -19 10 3 10 24 8 36 -4 24z"/>
<path d="M9082 7848 c-7 -7 -12 -17 -12 -22 0 -6 6 -4 13 5 7 9 19 18 27 22
13 5 13 6 0 6 -9 1 -21 -4 -28 -11z"/>
<path d="M8176 7778 c3 -5 10 -6 15 -3 13 9 11 12 -6 12 -8 0 -12 -4 -9 -9z"/>
<path d="M11745 7777 c-29 -33 -29 -32 33 -123 7 -11 1 5 -13 34 -24 49 -25
53 -9 77 16 25 8 34 -11 12z"/>
<path d="M8142 7750 c0 -14 2 -19 5 -12 2 6 2 18 0 25 -3 6 -5 1 -5 -13z"/>
<path d="M11421 7744 c-1 -29 17 -71 79 -179 28 -50 35 -56 27 -27 -4 17 -2
22 8 18 8 -3 13 2 13 12 0 9 0 22 2 27 5 20 0 36 -10 30 -6 -3 -10 4 -10 16 0
22 0 22 -22 3 -13 -10 -17 -12 -10 -4 15 18 16 54 0 44 -6 -4 -18 2 -26 12
-13 18 -14 18 -7 -3 4 -14 2 -23 -4 -23 -6 0 -11 3 -12 8 -1 11 -7 34 -18 67
l-9 30 -1 -31z m99 -165 c0 -7 -6 -4 -15 7 -19 25 -19 40 0 20 8 -8 15 -20 15
-27z"/>
<path d="M8185 7750 c-3 -6 1 -7 9 -4 18 7 21 14 7 14 -6 0 -13 -4 -16 -10z"/>
<path d="M7897 7730 c-3 -11 -2 -20 3 -20 12 0 21 28 11 35 -5 2 -11 -4 -14
-15z"/>
<path d="M10241 7743 c0 -6 -10 -10 -21 -8 -36 7 -21 -4 63 -43 45 -21 112
-60 150 -85 37 -26 67 -45 67 -43 0 10 -60 63 -65 58 -3 -3 -5 2 -5 12 0 9 5
14 10 11 17 -11 11 7 -7 20 -13 10 -23 10 -37 3 -15 -8 -21 -8 -24 1 -2 6 -7
9 -11 7 -4 -3 -13 0 -21 5 -13 8 -13 10 0 19 13 8 13 10 -2 10 -9 0 -19 -6
-21 -12 -4 -10 -6 -10 -6 0 -1 7 -5 10 -11 7 -13 -8 -13 8 0 21 7 7 6 11 -5
11 -8 0 -15 -6 -15 -13 0 -18 -28 -6 -33 14 -3 10 -5 12 -6 5z"/>
<path d="M9340 7713 c9 -19 8 -23 -5 -23 -8 0 -15 -5 -15 -10 0 -6 14 -3 33 6
41 21 47 27 22 22 -11 -2 -26 3 -33 12 -11 13 -11 11 -2 -7z"/>
<path d="M9406 7721 c-4 -5 3 -7 14 -4 23 6 26 13 6 13 -8 0 -17 -4 -20 -9z"/>
<path d="M9262 7686 c2 -20 0 -36 -4 -36 -4 0 -8 8 -9 18 0 10 -3 12 -6 4 -2
-6 -8 -10 -12 -8 -4 3 -8 0 -8 -7 0 -18 48 -18 72 0 20 15 20 15 -3 10 -19 -4
-21 -2 -18 19 3 13 0 27 -6 30 -7 4 -9 -6 -6 -30z"/>
<path d="M7876 7683 c-6 -14 -5 -15 5 -6 7 7 10 15 7 18 -3 3 -9 -2 -12 -12z"/>
<path d="M11720 7682 c0 -5 7 -15 15 -22 8 -7 15 -9 15 -6 0 4 -7 14 -15 22
-8 9 -15 11 -15 6z"/>
<path d="M9220 7619 c0 -5 5 -7 10 -4 6 3 10 8 10 11 0 2 -4 4 -10 4 -5 0 -10
-5 -10 -11z"/>
<path d="M7816 7553 c-6 -14 -5 -15 5 -6 7 7 10 15 7 18 -3 3 -9 -2 -12 -12z"/>
<path d="M7782 7470 c-11 -33 -19 -60 -16 -60 3 0 10 14 16 31 6 17 14 26 17
20 4 -6 7 8 8 29 1 22 1 40 -1 40 -1 0 -12 -27 -24 -60z"/>
<path d="M8695 7520 c-3 -5 -1 -10 4 -10 6 0 11 5 11 10 0 6 -2 10 -4 10 -3 0
-8 -4 -11 -10z"/>
<path d="M8647 7448 c-41 -65 -59 -98 -81 -153 -13 -32 -13 -36 -1 -21 13 17
17 17 32 5 16 -13 17 -12 5 3 -10 13 -10 17 0 21 10 4 10 6 1 6 -7 1 -13 6
-13 12 0 7 10 9 25 7 13 -3 22 -1 19 3 -3 5 -13 9 -22 10 -14 0 -13 2 3 9 11
5 14 9 8 9 -7 1 -13 5 -13 11 0 5 6 7 14 4 11 -4 13 0 9 15 -3 13 -1 21 6 21
7 0 10 4 7 9 -3 5 1 14 9 21 8 7 15 19 15 27 0 8 5 11 10 8 6 -4 8 -10 5 -15
-3 -4 2 -10 10 -14 18 -7 18 1 1 33 -13 24 -13 24 -49 -31z"/>
<path d="M10954 7491 c4 -5 3 -11 -1 -14 -5 -2 -2 -2 4 -1 7 2 17 -5 23 -16
14 -26 13 -30 -7 -30 -15 0 -15 -1 0 -18 10 -10 17 -24 17 -30 0 -6 4 -14 10
-17 11 -7 2 23 -12 42 -5 7 -5 14 2 18 6 4 15 -7 21 -24 6 -17 16 -31 22 -31
7 0 7 -4 -1 -12 -7 -7 -12 -21 -12 -32 0 -17 2 -18 9 -6 6 8 7 18 5 22 -3 4
-1 8 5 8 9 0 22 -28 27 -60 2 -12 1 -12 -9 1 -10 14 -14 14 -25 3 -11 -12 -9
-14 8 -15 11 -1 26 -2 33 -3 6 0 12 -10 12 -21 0 -11 3 -24 8 -30 4 -5 14 -19
22 -30 10 -13 9 -2 -5 33 -39 103 -133 272 -151 272 -6 0 -8 -4 -5 -9z"/>
<path d="M11855 7472 c4 -22 2 -39 -7 -50 -11 -15 -11 -16 3 -4 14 10 18 10
22 -2 4 -9 -1 -20 -11 -25 -9 -5 -13 -13 -9 -17 5 -5 12 -2 17 6 7 12 11 10
19 -10 18 -46 11 -4 -10 61 -23 71 -35 91 -24 41z"/>
<path d="M8661 7413 c-10 -26 -10 -27 4 -9 8 11 15 23 15 28 0 15 -7 8 -19
-19z"/>
<path d="M8903 7324 c3 -4 2 -15 -4 -25 -14 -28 -4 -23 15 6 15 23 15 25 0 25
-10 0 -14 -3 -11 -6z"/>
<path d="M8022 7294 c-7 -7 -12 -16 -12 -19 1 -20 -1 -25 -10 -25 -5 0 -7 6
-4 14 3 8 1 16 -3 19 -5 3 -10 -3 -10 -14 -1 -11 4 -22 12 -25 11 -4 10 -14
-1 -57 -22 -77 -24 -92 -15 -81 8 9 63 196 58 200 -1 1 -8 -4 -15 -12z"/>
<path d="M8840 7301 c0 -6 5 -11 10 -11 6 0 10 -4 10 -10 0 -5 -8 -7 -17 -4
-12 3 -10 0 4 -8 19 -12 20 -16 9 -37 -8 -14 -16 -19 -20 -13 -3 6 -2 13 4 17
15 9 12 22 -5 22 -8 0 -15 -9 -15 -19 0 -10 -5 -18 -11 -18 -6 0 -8 7 -4 18 5
14 4 15 -6 5 -16 -16 -4 -28 32 -36 22 -6 28 -2 42 28 10 22 13 35 6 35 -6 0
-8 7 -5 17 4 10 4 14 0 10 -4 -4 -13 -2 -21 4 -9 9 -13 8 -13 0z"/>
<path d="M10795 7190 c25 -52 51 -112 57 -132 6 -21 15 -38 19 -38 4 0 4 13
-1 29 -7 24 -5 29 6 24 16 -6 20 22 4 32 -5 3 -10 16 -11 28 0 21 -1 21 -11
-3 -6 -15 -12 -20 -15 -12 -3 7 2 24 11 37 15 23 15 25 1 25 -10 0 -13 5 -9
12 4 6 3 8 -3 5 -6 -4 -19 1 -29 9 -17 14 -17 15 -1 10 11 -3 16 -2 12 4 -3 6
-11 10 -17 10 -6 0 -22 12 -35 28 -18 20 -13 4 22 -68z m41 -15 c10 -26 -1
-35 -13 -10 -6 14 -7 25 -2 25 5 0 12 -7 15 -15z m39 -75 c3 -5 -1 -10 -9 -10
-9 0 -16 5 -16 10 0 6 4 10 9 10 6 0 13 -4 16 -10z"/>
<path d="M11630 7239 c0 -3 7 -30 16 -60 18 -62 39 -99 57 -99 8 0 7 4 -3 10
-12 8 -13 12 -2 19 19 12 10 47 -11 43 -11 -2 -17 4 -17 15 0 16 2 16 11 3 9
-13 10 -13 6 1 -3 9 0 23 6 30 8 8 5 8 -7 -1 -18 -14 -19 -13 -13 3 10 25 -2
21 -13 -5 -8 -21 -9 -21 -10 -3 0 17 -19 59 -20 44z m60 -109 c0 -5 -4 -10
-10 -10 -5 0 -10 5 -10 10 0 6 5 10 10 10 6 0 10 -4 10 -10z"/>
<path d="M11030 7210 c-9 -6 -10 -10 -3 -10 6 0 15 5 18 10 8 12 4 12 -15 0z"/>
<path d="M11898 7187 c-21 -12 -38 -26 -38 -30 0 -9 25 4 60 32 32 27 24 26
-22 -2z"/>
<path d="M8815 7190 c-3 -4 -2 -16 2 -26 3 -10 2 -15 -3 -12 -5 4 -9 -7 -9
-22 0 -34 3 -32 26 19 14 33 15 40 3 45 -7 3 -16 1 -19 -4z"/>
<path d="M7960 7160 c0 -11 2 -20 4 -20 2 0 6 9 9 20 3 11 1 20 -4 20 -5 0 -9
-9 -9 -20z"/>
<path d="M11700 7170 c0 -5 7 -10 16 -10 8 0 12 5 9 10 -3 6 -10 10 -16 10 -5
0 -9 -4 -9 -10z"/>
<path d="M11732 7130 c7 -10 14 -18 15 -16 6 6 -9 36 -18 36 -5 0 -4 -9 3 -20z"/>
<path d="M11770 7140 c-13 -8 -12 -10 3 -10 9 0 17 5 17 10 0 12 -1 12 -20 0z"/>
<path d="M11830 7139 c0 -5 5 -7 10 -4 6 3 10 8 10 11 0 2 -4 4 -10 4 -5 0
-10 -5 -10 -11z"/>
<path d="M11745 7088 l-20 -21 23 12 c12 6 22 16 22 21 0 13 -2 12 -25 -12z"/>
<path d="M8449 6918 c0 -13 -4 -46 -8 -75 l-7 -52 75 -31 c41 -16 76 -28 79
-26 9 10 -24 33 -40 28 -10 -2 -18 0 -18 6 0 5 -7 9 -16 8 -9 0 -19 5 -22 13
-2 8 0 11 5 8 5 -3 10 0 10 7 0 8 -8 11 -19 8 -10 -2 -15 -8 -12 -13 3 -5 -2
-6 -10 -3 -9 3 -16 10 -16 16 0 5 5 6 10 3 6 -3 10 -2 10 4 0 5 -4 12 -9 16
-5 3 -7 28 -4 55 3 28 3 50 -1 50 -3 0 -6 -10 -7 -22z"/>
<path d="M8460 6846 c0 -2 7 -7 16 -10 8 -3 12 -2 9 4 -6 10 -25 14 -25 6z"/>
<path d="M11202 6815 c0 -16 2 -22 5 -12 2 9 2 23 0 30 -3 6 -5 -1 -5 -18z"/>
<path d="M8610 6720 c8 -5 20 -10 25 -10 6 0 3 5 -5 10 -8 5 -19 10 -25 10 -5
0 -3 -5 5 -10z"/>
</g>
</svg>
