<?xml version="1.0" standalone="no"?>
<!DOCTYPE svg PUBLIC "-//W3C//DTD SVG 20010904//EN"
 "http://www.w3.org/TR/2001/REC-SVG-20010904/DTD/svg10.dtd">
<svg version="1.0" xmlns="http://www.w3.org/2000/svg"
 width="100.000000pt" height="98.000000pt" viewBox="0 0 100.000000 98.000000"
 preserveAspectRatio="xMidYMid meet">

<g transform="translate(0.000000,98.000000) scale(0.100000,-0.100000)"
fill="#000000" stroke="none">
<path d="M360 735 l0 -35 -100 0 -100 0 0 -50 0 -50 76 0 c57 0 75 -3 71 -12
-2 -7 -19 -60 -38 -116 -31 -94 -37 -105 -66 -117 -63 -26 -52 -117 14 -123
68 -7 102 47 63 100 l-21 29 39 117 39 117 56 3 57 3 0 -36 c0 -19 5 -35 10
-35 6 0 10 16 10 35 0 35 0 35 45 35 l45 0 0 -118 c0 -106 -2 -118 -20 -130
-15 -9 -25 -9 -45 0 -20 9 -25 18 -25 50 0 21 -4 38 -10 38 -5 0 -10 -15 -10
-34 0 -25 -8 -43 -31 -65 -25 -26 -30 -37 -24 -59 3 -15 13 -33 22 -39 21 -16
75 -17 91 -1 9 9 15 9 24 0 16 -16 70 -16 86 0 9 9 15 9 24 0 18 -18 73 -14
91 6 26 28 22 77 -8 100 -24 19 -25 24 -25 136 l0 116 50 0 50 0 0 50 0 50
-115 0 -115 0 0 35 0 35 -105 0 -105 0 0 -35z m180 -10 c0 -25 -1 -25 -80 -25
-79 0 -80 0 -80 25 0 25 1 25 80 25 79 0 80 0 80 -25z m235 -75 l0 -25 -293
-3 c-254 -2 -293 0 -298 13 -4 8 -4 22 0 30 5 13 44 15 298 13 l293 -3 0 -25z
m-105 -170 c0 -109 -2 -120 -20 -130 -14 -8 -26 -8 -40 0 -18 10 -20 21 -20
130 l0 120 40 0 40 0 0 -120z m-416 -153 c38 -27 -2 -95 -41 -71 -22 14 -29
50 -13 70 15 17 31 18 54 1z m236 -1 c16 -20 9 -56 -12 -70 -40 -24 -80 44
-42 71 23 17 39 16 54 -1z m114 -5 c23 -25 13 -59 -20 -67 -46 -12 -72 37 -38
70 21 21 37 20 58 -3z m110 3 c34 -33 8 -82 -38 -70 -33 8 -43 42 -20 67 21
23 37 24 58 3z"/>
<path d="M450 490 c0 -5 5 -10 10 -10 6 0 10 5 10 10 0 6 -4 10 -10 10 -5 0
-10 -4 -10 -10z"/>
</g>
</svg>
