<?xml version="1.0" standalone="no"?>
<!DOCTYPE svg PUBLIC "-//W3C//DTD SVG 20010904//EN"
 "http://www.w3.org/TR/2001/REC-SVG-20010904/DTD/svg10.dtd">
<svg version="1.0" xmlns="http://www.w3.org/2000/svg"
 width="2048.000000pt" height="2048.000000pt" viewBox="0 0 2048.000000 2048.000000"
 preserveAspectRatio="xMidYMid meet">

<g transform="translate(0.000000,2048.000000) scale(0.100000,-0.100000)"
fill="#000000" stroke="none">
<path d="M9885 18424 c-38 -2 -171 -13 -295 -24 -892 -81 -1728 -314 -2515
-700 -1690 -830 -2999 -2322 -3606 -4110 -204 -599 -309 -1092 -366 -1710 -22
-245 -25 -932 -5 -1170 81 -964 311 -1787 737 -2641 175 -351 320 -589 578
-954 400 -564 964 -1138 1542 -1570 1508 -1127 3356 -1620 5193 -1385 1728
222 3357 1107 4528 2460 631 730 1074 1510 1368 2408 250 764 357 1438 357
2242 -1 497 -42 930 -132 1375 -217 1069 -657 2059 -1304 2930 -291 392 -734
858 -1135 1195 -921 771 -1988 1283 -3167 1519 -471 94 -832 131 -1338 135
-203 2 -401 2 -440 0z m920 -443 c863 -80 1673 -306 2407 -672 1192 -595 2182
-1526 2843 -2674 528 -917 834 -1912 906 -2952 15 -222 6 -830 -15 -1043 -86
-831 -305 -1590 -681 -2355 -441 -896 -1097 -1694 -1921 -2336 -954 -743
-2118 -1228 -3284 -1368 -315 -38 -443 -45 -800 -45 -443 -1 -710 20 -1104 85
-1336 220 -2612 871 -3615 1844 -140 137 -326 339 -488 532 -622 740 -1099
1683 -1347 2661 -461 1816 -115 3756 955 5359 557 833 1271 1513 2134 2032
934 562 1957 874 3090 945 119 7 803 -3 920 -13z"/>
<path d="M12718 17059 c-81 -12 -142 -54 -217 -148 -388 -488 -592 -1139 -551
-1758 32 -486 145 -896 475 -1728 182 -459 288 -763 369 -1059 20 -71 38 -131
40 -134 6 -5 81 5 379 50 l208 32 -7 41 c-13 79 -75 322 -115 450 -61 195
-160 462 -270 730 -165 404 -312 822 -379 1080 -35 135 -75 359 -86 480 l-7
80 169 -162 c93 -90 261 -252 374 -361 l204 -199 81 71 c44 39 96 84 115 100
l34 28 -482 480 -482 479 20 104 c23 119 125 429 150 458 4 4 272 -258 596
-583 l589 -591 102 108 c56 59 102 113 103 118 0 6 -272 282 -605 615 -333
333 -605 609 -605 613 0 4 23 36 50 70 65 81 93 152 92 239 -1 189 -158 324
-344 297z"/>
<path d="M10185 14662 c-74 -190 -241 -549 -340 -734 -131 -243 -231 -403
-510 -818 -139 -206 -286 -431 -327 -500 -351 -583 -556 -1044 -634 -1430 -24
-117 -27 -160 -28 -320 l-1 -185 36 -81 c87 -196 213 -376 384 -553 116 -119
204 -195 320 -276 l70 -48 -66 69 c-182 192 -299 390 -372 634 -92 304 -87
556 18 915 41 142 108 303 220 530 175 355 335 622 623 1042 303 444 487 752
607 1021 27 62 53 112 57 112 4 0 10 -10 14 -22 15 -50 167 -351 246 -488 111
-190 195 -322 396 -614 268 -390 364 -545 514 -834 l75 -142 75 107 c41 60 85
127 97 151 l22 43 -51 97 c-80 150 -226 388 -370 602 -445 662 -567 861 -730
1196 -89 181 -231 503 -265 602 -11 28 -21 52 -24 52 -4 0 -28 -58 -56 -128z"/>
<path d="M13117 11463 c-591 -856 -665 -968 -650 -971 13 -3 140 5 392 25 l84
6 -7 -39 c-4 -21 -30 -106 -57 -189 -94 -283 -286 -628 -500 -895 -99 -124
-341 -370 -454 -461 -268 -215 -625 -405 -948 -503 -257 -78 -471 -110 -732
-110 -333 0 -605 54 -945 187 -193 75 -363 162 -599 306 -101 61 -185 110
-187 108 -3 -2 29 -97 71 -212 71 -197 151 -457 175 -573 11 -47 16 -55 56
-78 110 -65 429 -183 655 -243 353 -95 791 -123 1158 -75 495 64 906 214 1349
491 471 296 921 773 1222 1297 141 246 292 617 356 879 14 55 20 67 33 62 32
-13 209 -54 336 -80 72 -14 140 -28 152 -30 19 -4 10 19 -69 182 -236 489
-627 1273 -636 1273 -5 0 -120 -161 -255 -357z"/>
<path d="M9052 10950 c-44 -10 -90 -55 -104 -103 -27 -90 30 -363 111 -532
173 -357 495 -601 887 -669 235 -41 334 -3 334 130 0 95 -65 154 -170 154
-135 0 -331 63 -455 145 -231 154 -374 389 -410 675 -7 59 -17 116 -23 126
-15 29 -54 61 -82 69 -45 12 -55 13 -88 5z"/>
<path d="M6310 9493 c-192 -14 -481 -72 -678 -135 -300 -95 -633 -277 -873
-476 -139 -116 -169 -167 -169 -291 0 -87 30 -151 99 -213 61 -55 122 -78 206
-78 87 0 140 22 226 91 41 34 100 82 133 107 l58 45 612 -612 613 -612 106
113 106 113 -577 577 c-317 318 -574 579 -572 582 31 29 336 130 465 153 l98
17 473 -479 c469 -474 474 -479 493 -460 11 11 58 63 106 114 l86 95 -365 365
c-202 202 -366 370 -366 375 0 28 410 -26 632 -83 l107 -28 -15 36 c-47 108
-134 336 -183 476 l-56 160 -100 17 c-198 32 -473 46 -665 31z"/>
<path d="M5140 3424 c-205 -44 -374 -203 -425 -401 -19 -73 -19 -213 0 -286
77 -294 386 -470 708 -402 107 22 192 69 274 151 221 218 218 585 -6 796 -142
135 -345 187 -551 142z m210 -125 c171 -27 298 -145 341 -313 20 -80 7 -213
-29 -289 -51 -110 -136 -185 -250 -222 -83 -27 -228 -18 -306 18 -157 72 -246
214 -246 391 0 236 165 407 410 425 8 0 44 -4 80 -10z"/>
<path d="M6360 3434 c-58 -10 -117 -28 -152 -46 -130 -64 -193 -206 -154 -342
31 -106 108 -163 286 -211 52 -14 129 -35 170 -46 138 -38 200 -92 200 -175 0
-56 -33 -103 -95 -134 -45 -22 -62 -25 -165 -25 -150 0 -251 30 -346 100 l-31
24 -28 -59 c-35 -73 -31 -79 80 -131 227 -106 526 -87 655 43 113 113 106 320
-13 408 -53 39 -121 64 -285 106 -129 32 -201 59 -232 86 -55 46 -67 130 -27
189 69 105 308 119 486 30 l58 -30 27 61 c14 34 25 62 23 63 -14 12 -114 56
-157 69 -54 17 -248 29 -300 20z"/>
<path d="M14601 3425 c-277 -63 -456 -301 -438 -581 13 -182 98 -328 250 -429
167 -111 420 -125 607 -33 87 42 196 151 238 238 107 219 69 485 -92 646 -69
69 -129 107 -225 142 -84 31 -244 39 -340 17z m284 -146 c115 -37 217 -139
256 -257 17 -52 21 -81 17 -160 -3 -83 -8 -107 -35 -164 -42 -90 -109 -160
-192 -201 -63 -31 -70 -32 -186 -32 -116 0 -123 1 -187 33 -315 155 -317 618
-3 767 102 48 212 53 330 14z"/>
<path d="M16913 3426 c-128 -30 -212 -87 -255 -174 -18 -37 -23 -64 -23 -127
0 -95 21 -143 86 -199 52 -44 113 -68 289 -112 225 -57 285 -99 285 -199 0
-36 -6 -59 -23 -82 -85 -120 -408 -107 -579 23 l-32 24 -26 -58 c-18 -38 -24
-62 -17 -72 17 -29 175 -100 255 -115 147 -28 311 -13 408 35 169 84 224 299
111 431 -48 56 -130 94 -305 140 -243 63 -297 100 -297 200 0 61 31 107 94
138 97 48 281 37 403 -24 l64 -32 25 55 c13 30 24 59 24 64 0 12 -97 56 -163
74 -78 22 -250 27 -324 10z"/>
<path d="M3110 2880 l0 -549 323 3 c207 2 342 8 377 16 109 25 192 85 224 162
19 43 21 164 5 222 -14 51 -78 119 -142 149 l-52 24 30 16 c37 19 77 61 101
107 13 25 18 57 18 115 0 91 -21 144 -75 189 -96 81 -180 96 -535 96 l-274 0
0 -550z m642 392 c57 -28 88 -68 95 -122 7 -53 -2 -84 -38 -125 -49 -55 -98
-65 -336 -65 l-203 0 0 171 0 171 218 -4 c204 -3 220 -4 264 -26z m18 -456
c88 -33 130 -90 130 -177 0 -69 -27 -113 -90 -149 -44 -25 -50 -25 -292 -28
l-248 -3 0 184 c0 101 3 187 8 191 4 5 106 6 227 3 172 -3 230 -8 265 -21z"/>
<path d="M4292 2885 l3 -546 78 -3 77 -4 0 549 0 549 -80 0 -80 0 2 -545z"/>
<path d="M6940 3365 l0 -65 185 0 185 0 0 -483 0 -483 80 -1 80 0 0 483 0 484
185 0 185 0 0 65 0 65 -450 0 -450 0 0 -65z"/>
<path d="M8025 2884 l0 -546 78 -1 77 -2 0 548 0 547 -77 0 -78 0 0 -546z"/>
<path d="M8504 2884 l1 -547 75 -1 75 -1 1 385 c1 212 2 389 3 394 1 12 17
-13 230 -366 l174 -288 38 0 c29 0 42 5 52 23 8 12 49 83 92 157 43 74 126
216 184 315 l106 180 3 -400 2 -400 75 -1 75 -1 0 548 0 549 -67 0 -68 -1
-225 -384 c-123 -212 -227 -385 -230 -385 -3 1 -108 174 -234 385 l-229 385
-67 0 -67 0 1 -546z"/>
<path d="M10003 3058 c4 -399 7 -419 59 -523 30 -58 106 -134 168 -165 88 -45
243 -62 366 -39 126 23 234 101 289 209 49 96 55 154 55 538 l0 352 -74 0 -74
0 -4 -362 c-4 -303 -7 -371 -21 -414 -24 -74 -69 -129 -129 -161 -49 -26 -62
-28 -163 -28 -103 0 -113 2 -164 30 -61 34 -94 72 -124 147 -21 50 -22 71 -25
421 l-3 367 -81 0 -80 0 5 -372z"/>
<path d="M11260 2880 l0 -549 370 1 370 1 0 64 0 63 -292 2 -293 3 -3 483 -2
482 -75 0 -75 0 0 -550z"/>
<path d="M12531 3412 c-23 -43 -481 -1065 -481 -1074 0 -5 35 -8 77 -6 l78 3
59 133 60 132 296 0 297 0 60 -132 60 -131 79 2 c43 1 80 4 82 6 2 2 -63 146
-144 321 -81 176 -184 400 -229 500 -46 99 -92 199 -104 222 l-21 42 -80 0
c-67 0 -81 -3 -89 -18z m211 -414 l115 -263 -118 -3 c-66 -1 -172 -1 -237 0
l-119 3 116 263 c63 144 118 262 122 262 3 0 58 -118 121 -262z"/>
<path d="M13180 3365 l0 -65 185 0 185 0 0 -485 0 -485 80 0 80 0 0 485 0 485
185 0 185 0 0 65 0 65 -450 0 -450 0 0 -65z"/>
<path d="M15552 2885 l3 -547 78 -3 77 -3 0 168 0 167 77 7 c42 3 117 6 168 6
l91 0 118 -173 117 -173 72 4 c40 2 77 4 84 5 7 1 -44 82 -113 181 -69 98
-123 180 -122 181 2 1 22 12 46 24 101 51 163 140 183 262 25 159 -46 311
-176 374 -106 52 -141 57 -433 62 l-272 5 2 -547z m572 390 c105 -39 165 -136
153 -249 -10 -97 -53 -157 -142 -198 -45 -20 -68 -23 -237 -26 l-188 -4 0 252
0 252 183 -4 c143 -4 192 -9 231 -23z"/>
</g>
</svg>
